<?xml version="1.0" encoding="UTF-8"?>
<svg xmlns="http://www.w3.org/2000/svg" width="172" height="50" viewBox="0 0 172 50" fill="none"> <path d="M164.871 1C166.284 1 167.638 1.55312 168.637 2.53769C169.636 3.52226 170.198 4.85761 170.198 6.25V43.75C170.198 45.1424 169.636 46.4777 168.637 47.4623C167.638 48.4469 166.284 49 164.871 49H6.34119C4.92849 49 3.57365 48.4469 2.57471 47.4623C1.57578 46.4777 1.01459 45.1424 1.01459 43.75V6.25C1.01459 4.85761 1.57578 3.52226 2.57471 2.53769C3.57365 1.55312 4.92849 1 6.34119 1H164.871ZM164.871 0H6.34119C4.6594 0 3.0465 0.65848 1.85729 1.83058C0.668088 3.00269 0 4.5924 0 6.25V43.75C0 45.4076 0.668088 46.9973 1.85729 48.1694C3.0465 49.3415 4.6594 50 6.34119 50H164.871C166.553 50 168.166 49.3415 169.355 48.1694C170.544 46.9973 171.212 45.4076 171.212 43.75V6.25C171.212 4.5924 170.544 3.00269 169.355 1.83058C168.166 0.65848 166.553 0 164.871 0Z" fill="#1C1C23"/> <path d="M40.7265 24.1406C40.6915 20.302 43.9154 18.4345 44.0629 18.3475C42.237 15.7237 39.407 15.3652 38.4125 15.3367C36.0356 15.0901 33.73 16.7385 32.5192 16.7385C31.2842 16.7385 29.4197 15.3605 27.4101 15.401C24.8242 15.4403 22.405 16.9159 21.0782 19.2074C18.34 23.8798 20.3821 30.7459 23.0055 34.5226C24.3179 36.3722 25.8513 38.4375 27.8584 38.3648C29.822 38.285 30.5555 37.1309 32.9252 37.1309C35.2731 37.1309 35.9619 38.3648 38.0089 38.3184C40.1163 38.285 41.4431 36.4604 42.7095 34.5941C44.226 32.4741 44.835 30.3862 44.8592 30.279C44.8096 30.2624 40.7664 28.7415 40.7265 24.1406Z" fill="#1C1C23"/> <path d="M36.8597 12.8529C37.9158 11.5512 38.6384 9.78014 38.4378 7.98291C36.9092 8.04961 34.9975 9.02504 33.8967 10.2982C32.9227 11.4202 32.0527 13.2591 32.2775 14.9884C33.9946 15.1147 35.7576 14.1345 36.8597 12.8529Z" fill="#1C1C23"/> <path d="M69.1436 38.0987H66.3994L64.8961 33.4431H59.6711L58.2391 38.0987H55.5674L60.7441 22.2488H63.9415L69.1436 38.0987ZM64.443 31.4898L63.0835 27.3511C62.9397 26.9282 62.6703 25.9326 62.2727 24.3652H62.2244C62.0661 25.0393 61.8111 26.035 61.4607 27.3511L60.1254 31.4898H64.443Z" fill="#1C1C23"/> <path d="M82.4562 32.2421C82.4562 34.1859 81.9233 35.7223 80.8575 36.8501C79.9029 37.8542 78.7175 38.3556 77.3025 38.3556C75.7751 38.3556 74.6779 37.8149 74.0096 36.7334H73.9613V42.754H71.385V30.4306C71.385 29.2086 71.3524 27.9545 71.2896 26.6682H73.5553L73.6991 28.4797H73.7474C74.6066 27.1149 75.9104 26.4336 77.6601 26.4336C79.028 26.4336 80.17 26.966 81.0835 28.0319C81.9995 29.0991 82.4562 30.5021 82.4562 32.2421ZM79.8316 32.335C79.8316 31.2226 79.5779 30.3056 79.0679 29.5838C78.5108 28.8311 77.7629 28.4547 76.8252 28.4547C76.1895 28.4547 75.6119 28.6644 75.096 29.0776C74.5788 29.4945 74.2404 30.0388 74.0821 30.7129C74.0024 31.0273 73.9625 31.2846 73.9625 31.487V33.3927C73.9625 34.224 74.2211 34.9255 74.7383 35.4984C75.2555 36.0712 75.9273 36.3571 76.7539 36.3571C77.7242 36.3571 78.4794 35.9879 79.0196 35.2518C79.5609 34.5146 79.8316 33.5427 79.8316 32.335Z" fill="#1C1C23"/> <path d="M95.7929 32.2421C95.7929 34.1859 95.26 35.7223 94.193 36.8501C93.2396 37.8542 92.0542 38.3556 90.6392 38.3556C89.1118 38.3556 88.0145 37.8149 87.3475 36.7334H87.2992V42.754H84.7229V30.4306C84.7229 29.2086 84.6903 27.9545 84.6274 26.6682H86.8932L87.037 28.4797H87.0853C87.9432 27.1149 89.2471 26.4336 90.9981 26.4336C92.3647 26.4336 93.5067 26.966 94.4226 28.0319C95.335 29.0991 95.7929 30.5021 95.7929 32.2421ZM93.1683 32.335C93.1683 31.2226 92.9133 30.3056 92.4034 29.5838C91.8463 28.8311 91.1008 28.4547 90.1618 28.4547C89.525 28.4547 88.9486 28.6644 88.4314 29.0776C87.9143 29.4945 87.5771 30.0388 87.4188 30.7129C87.3403 31.0273 87.2992 31.2846 87.2992 31.487V33.3927C87.2992 34.224 87.5578 34.9255 88.0725 35.4984C88.5897 36.07 89.2616 36.3571 90.0906 36.3571C91.0609 36.3571 91.8161 35.9879 92.3563 35.2518C92.8976 34.5146 93.1683 33.5427 93.1683 32.335Z" fill="#1C1C23"/> <path d="M110.705 33.6539C110.705 35.0022 110.23 36.0991 109.277 36.9459C108.229 37.8713 106.77 38.3334 104.896 38.3334C103.166 38.3334 101.779 38.0047 100.729 37.3461L101.325 35.2296C102.457 35.9038 103.698 36.242 105.05 36.242C106.02 36.242 106.775 36.0252 107.318 35.5941C107.858 35.1629 108.127 34.5841 108.127 33.8624C108.127 33.2192 107.905 32.6773 107.459 32.2378C107.016 31.7984 106.275 31.3898 105.241 31.0123C102.425 29.9773 101.019 28.4611 101.019 26.4674C101.019 25.1644 101.512 24.0961 102.499 23.2648C103.482 22.4323 104.795 22.0166 106.436 22.0166C107.899 22.0166 109.115 22.2679 110.085 22.7693L109.441 24.8393C108.535 24.3534 107.51 24.1104 106.363 24.1104C105.457 24.1104 104.749 24.3307 104.241 24.769C103.812 25.1609 103.597 25.6385 103.597 26.2042C103.597 26.8307 103.843 27.3487 104.336 27.7561C104.765 28.1324 105.544 28.5398 106.675 28.9792C108.059 29.5283 109.075 30.1702 109.729 30.9063C110.38 31.6399 110.705 32.5582 110.705 33.6539Z" fill="#1C1C23"/> <path d="M119.223 28.5756H116.383V34.1245C116.383 35.5358 116.884 36.2409 117.886 36.2409C118.347 36.2409 118.729 36.2016 119.031 36.123L119.102 38.0512C118.595 38.2382 117.926 38.3323 117.099 38.3323C116.081 38.3323 115.286 38.0262 114.712 37.4152C114.14 36.8031 113.853 35.7764 113.853 34.3341V28.5732H112.161V26.6676H113.853V24.575L116.383 23.8223V26.6676H119.223V28.5756Z" fill="#1C1C23"/> <path d="M132.035 32.2906C132.035 34.0473 131.525 35.4896 130.508 36.6175C129.441 37.7787 128.025 38.3576 126.259 38.3576C124.558 38.3576 123.203 37.8014 122.193 36.689C121.183 35.5766 120.678 34.1724 120.678 32.4799C120.678 30.7089 121.197 29.2583 122.24 28.1304C123.281 27.0013 124.685 26.4368 126.45 26.4368C128.152 26.4368 129.521 26.993 130.554 28.1066C131.542 29.1868 132.035 30.5815 132.035 32.2906ZM129.362 32.3727C129.362 31.3187 129.134 30.4147 128.671 29.6608C128.131 28.7485 127.359 28.2935 126.358 28.2935C125.323 28.2935 124.536 28.7497 123.996 29.6608C123.533 30.4159 123.305 31.3342 123.305 32.4204C123.305 33.4744 123.533 34.3784 123.996 35.1311C124.553 36.0434 125.331 36.4984 126.335 36.4984C127.319 36.4984 128.091 36.0339 128.648 35.1073C129.123 34.3391 129.362 33.4256 129.362 32.3727Z" fill="#1C1C23"/> <path d="M140.409 28.9014C140.154 28.8549 139.882 28.8311 139.597 28.8311C138.691 28.8311 137.99 29.1681 137.497 29.8434C137.068 30.439 136.853 31.1917 136.853 32.1004V38.0971H134.278L134.302 30.2674C134.302 28.9502 134.269 27.7508 134.205 26.6694H136.449L136.543 28.8561H136.615C136.886 28.1046 137.315 27.4995 137.903 27.0458C138.477 26.6373 139.097 26.4336 139.765 26.4336C140.003 26.4336 140.218 26.4503 140.409 26.48V28.9014Z" fill="#1C1C23"/> <path d="M151.931 31.8441C151.931 32.2991 151.901 32.6826 151.837 32.9958H144.108C144.138 34.1249 144.512 34.9884 145.229 35.5839C145.881 36.1163 146.723 36.383 147.757 36.383C148.902 36.383 149.946 36.2032 150.885 35.8423L151.288 37.605C150.191 38.0767 148.896 38.3113 147.401 38.3113C145.603 38.3113 144.191 37.7896 143.164 36.7475C142.14 35.7054 141.626 34.3059 141.626 32.5504C141.626 30.827 142.103 29.3918 143.059 28.2473C144.06 27.0253 145.412 26.4143 147.113 26.4143C148.784 26.4143 150.05 27.0253 150.909 28.2473C151.589 29.2179 151.931 30.4185 151.931 31.8441ZM149.474 31.1855C149.491 30.4328 149.323 29.7825 148.974 29.2334C148.528 28.5272 147.843 28.1746 146.921 28.1746C146.079 28.1746 145.394 28.5188 144.87 29.2096C144.442 29.7587 144.187 30.4173 144.108 31.1843H149.474V31.1855Z" fill="#1C1C23"/> <path d="M64.8036 18.3754H63.4635V16.4052H58.1087V18.3754H56.7463L56.7017 15.2936H57.3549C57.6788 14.9854 57.9375 14.5378 58.1311 13.9507C58.3246 13.36 58.4493 12.6923 58.5052 11.9475L58.7174 8.39233H63.8432V15.2936H64.8762L64.8036 18.3754ZM58.9519 15.2936H62.4361V9.51502H60.063L59.929 11.7714C59.8285 13.2793 59.5028 14.4534 58.9519 15.2936Z" fill="#1C1C23"/> <path d="M66.1235 13.3729C66.1235 12.7895 66.2408 12.2649 66.4753 11.7989C66.7098 11.3293 67.0393 10.9697 67.4636 10.7203C67.888 10.4671 68.3756 10.3405 68.9265 10.3405C69.7418 10.3405 70.4025 10.5992 70.9087 11.1165C71.4187 11.6338 71.6942 12.3199 71.7351 13.1748L71.7407 13.4885C71.7407 14.0755 71.6253 14.6001 71.3945 15.0624C71.1675 15.5247 70.8399 15.8824 70.4118 16.1356C69.9874 16.3887 69.4961 16.5153 68.9377 16.5153C68.0853 16.5153 67.4022 16.2365 66.8885 15.6788C66.3785 15.1175 66.1235 14.3708 66.1235 13.4389V13.3729ZM67.4804 13.4885C67.4804 14.1012 67.6088 14.5818 67.8656 14.9303C68.1225 15.2752 68.4798 15.4477 68.9377 15.4477C69.3956 15.4477 69.7511 15.2715 70.0042 14.9193C70.261 14.5671 70.3895 14.0516 70.3895 13.3729C70.3895 12.7712 70.2573 12.2942 69.993 11.942C69.7325 11.5898 69.377 11.4137 68.9265 11.4137C68.4836 11.4137 68.1318 11.588 67.8712 11.9365C67.6107 12.2814 67.4804 12.7987 67.4804 13.4885Z" fill="#1C1C23"/> <path d="M75.9419 15.4477C76.2806 15.4477 76.5617 15.3504 76.785 15.156C77.0083 14.9615 77.1275 14.7212 77.1424 14.435H78.421C78.4061 14.8056 78.2889 15.1523 78.0692 15.4752C77.8496 15.7944 77.5518 16.0475 77.1759 16.2346C76.7999 16.4218 76.3941 16.5153 75.9586 16.5153C75.1136 16.5153 74.4436 16.2456 73.9485 15.7063C73.4534 15.167 73.2059 14.4222 73.2059 13.4719V13.3344C73.2059 12.4281 73.4515 11.7035 73.9429 11.1605C74.4343 10.6139 75.1043 10.3405 75.953 10.3405C76.6715 10.3405 77.2559 10.5478 77.7063 10.9624C78.1604 11.3733 78.3987 11.9145 78.421 12.5859H77.1424C77.1275 12.2447 77.0083 11.964 76.785 11.7439C76.5654 11.5238 76.2843 11.4137 75.9419 11.4137C75.5026 11.4137 75.1639 11.5714 74.9256 11.887C74.6874 12.1988 74.5664 12.674 74.5627 13.3123V13.527C74.5627 14.1727 74.68 14.6552 74.9145 14.9744C75.1527 15.2899 75.4952 15.4477 75.9419 15.4477Z" fill="#1C1C23"/> <path d="M84.7719 11.5127H82.812V16.4052H81.4552V11.5127H79.5176V10.4506H84.7719V11.5127Z" fill="#1C1C23"/> <path d="M88.4314 14.4901L89.6598 10.4506H91.106L88.705 17.3078C88.3365 18.3094 87.7111 18.8102 86.8289 18.8102C86.6316 18.8102 86.4138 18.7772 86.1756 18.7112V17.6765L86.4325 17.693C86.7749 17.693 87.0318 17.6307 87.203 17.5059C87.378 17.3848 87.5157 17.1794 87.6162 16.8895L87.8116 16.3777L85.6898 10.4506H87.1528L88.4314 14.4901Z" fill="#1C1C23"/> <path d="M97.5853 16.4052H96.2284V11.5293H93.8721V16.4052H92.5153V10.4506H97.5853V16.4052Z" fill="#1C1C23"/> <path d="M104.718 16.4052H103.361V14.0003H101.01V16.4052H99.6535V10.4506H101.01V12.9326H103.361V10.4506H104.718V16.4052Z" fill="#1C1C23"/> <path d="M106.485 13.3729C106.485 12.7895 106.602 12.2649 106.836 11.7989C107.071 11.3293 107.4 10.9697 107.825 10.7203C108.249 10.4671 108.737 10.3405 109.288 10.3405C110.103 10.3405 110.763 10.5992 111.27 11.1165C111.78 11.6338 112.055 12.3199 112.096 13.1748L112.102 13.4885C112.102 14.0755 111.986 14.6001 111.756 15.0624C111.528 15.5247 111.201 15.8824 110.773 16.1356C110.348 16.3887 109.857 16.5153 109.299 16.5153C108.446 16.5153 107.763 16.2365 107.249 15.6788C106.74 15.1175 106.485 14.3708 106.485 13.4389V13.3729ZM107.841 13.4885C107.841 14.1012 107.97 14.5818 108.227 14.9303C108.483 15.2752 108.841 15.4477 109.299 15.4477C109.757 15.4477 110.112 15.2715 110.365 14.9193C110.622 14.5671 110.75 14.0516 110.75 13.3729C110.75 12.7712 110.618 12.2942 110.354 11.942C110.093 11.5898 109.738 11.4137 109.288 11.4137C108.845 11.4137 108.493 11.588 108.232 11.9365C107.972 12.2814 107.841 12.7987 107.841 13.4885Z" fill="#1C1C23"/> <path d="M117.344 16.4052V10.4506H119.795C120.621 10.4506 121.25 10.5937 121.682 10.8799C122.114 11.1624 122.33 11.5696 122.33 12.1016C122.33 12.3768 122.242 12.6244 122.067 12.8446C121.896 13.061 121.641 13.228 121.302 13.3454C121.697 13.4261 122.01 13.5894 122.241 13.8352C122.471 14.081 122.587 14.3708 122.587 14.7047C122.587 15.2587 122.378 15.6806 121.961 15.9705C121.548 16.2603 120.953 16.4052 120.175 16.4052H117.344ZM118.7 13.8682V15.3486H120.186C120.882 15.3486 121.23 15.1028 121.23 14.6111C121.23 14.1158 120.876 13.8682 120.169 13.8682H118.7ZM118.7 12.9106H119.817C120.588 12.9106 120.973 12.6868 120.973 12.2392C120.973 11.7696 120.608 11.5274 119.879 11.5127H118.7V12.9106Z" fill="#1C1C23"/> </svg>