<?xml version="1.0" encoding="UTF-8"?>
<svg xmlns="http://www.w3.org/2000/svg" width="170" height="51" viewBox="0 0 170 51" fill="none"> <path d="M163.704 1.00179C165.106 1.00179 166.452 1.5559 167.444 2.54222C168.435 3.52854 168.993 4.86629 168.993 6.26116V43.8281C168.993 45.223 168.435 46.5607 167.444 47.5471C166.452 48.5334 165.106 49.0875 163.704 49.0875H6.2963C4.8936 49.0875 3.54835 48.5334 2.55649 47.5471C1.56463 46.5607 1.00741 45.223 1.00741 43.8281V6.26116C1.00741 4.86629 1.56463 3.52854 2.55649 2.54222C3.54835 1.5559 4.8936 1.00179 6.2963 1.00179H163.704ZM163.704 0H6.2963C4.62641 0 3.02493 0.659656 1.84414 1.83385C0.663358 3.00805 0 4.6006 0 6.26116V43.8281C0 45.4887 0.663358 47.0812 1.84414 48.2554C3.02493 49.4296 4.62641 50.0893 6.2963 50.0893H163.704C165.374 50.0893 166.975 49.4296 168.156 48.2554C169.337 47.0812 170 45.4887 170 43.8281V6.26116C170 4.6006 169.337 3.00805 168.156 1.83385C166.975 0.659656 165.374 0 163.704 0Z" fill="#1C1C23"/> <path d="M85.8065 27.2378C84.7491 27.2428 83.7169 27.5591 82.8401 28.1469C81.9633 28.7347 81.2812 29.5676 80.88 30.5405C80.4788 31.5133 80.3764 32.5826 80.5858 33.6133C80.7951 34.644 81.3068 35.59 82.0563 36.3318C82.8057 37.0736 83.7594 37.578 84.7968 37.7813C85.8343 37.9846 86.9091 37.8778 87.8855 37.4742C88.862 37.0707 89.6964 36.3886 90.2833 35.5139C90.8703 34.6393 91.1835 33.6113 91.1836 32.5598C91.1938 31.856 91.0616 31.1573 90.7947 30.5053C90.5278 29.8534 90.1316 29.2615 89.6299 28.7649C89.1282 28.2683 88.5312 27.8772 87.8743 27.6149C87.2175 27.3525 86.5142 27.2243 85.8065 27.2378ZM85.8065 35.7906C85.1562 35.8358 84.5073 35.6854 83.944 35.359C83.3808 35.0326 82.9293 34.5453 82.6483 33.9603C82.3673 33.3754 82.2697 32.7199 82.3683 32.0791C82.4669 31.4383 82.7571 30.8418 83.2011 30.3672C83.6451 29.8925 84.2224 29.5617 84.858 29.4177C85.4936 29.2736 86.1581 29.3231 86.765 29.5596C87.372 29.796 87.8934 30.2086 88.2614 30.7437C88.6295 31.2788 88.8271 31.9115 88.8287 32.5598C88.849 32.9706 88.7864 33.3812 88.6445 33.7675C88.5027 34.1538 88.2845 34.5079 88.0028 34.809C87.7212 35.1101 87.3817 35.3521 87.0045 35.5207C86.6273 35.6893 86.22 35.781 85.8065 35.7906ZM74.0828 27.2378C73.0249 27.2403 71.9914 27.5545 71.1129 28.1408C70.2345 28.7271 69.5505 29.5591 69.1473 30.5318C68.7442 31.5045 68.64 32.5742 68.8479 33.6057C69.0558 34.6373 69.5666 35.5844 70.3155 36.3274C71.0645 37.0705 72.0181 37.5761 73.0559 37.7804C74.0937 37.9848 75.1692 37.8786 76.1464 37.4755C77.1235 37.0723 77.9587 36.3902 78.5462 35.5152C79.1337 34.6403 79.4472 33.6119 79.4472 32.5598C79.4575 31.856 79.3253 31.1573 79.0584 30.5053C78.7915 29.8534 78.3954 29.2615 77.8936 28.7649C77.3919 28.2683 76.7949 27.8772 76.138 27.6149C75.4812 27.3525 74.7779 27.2243 74.0702 27.2378H74.0828ZM74.0828 35.7906C73.4322 35.8383 72.7822 35.6902 72.2174 35.3655C71.6526 35.0408 71.1992 34.5545 70.9162 33.9699C70.6332 33.3854 70.5338 32.7297 70.6308 32.0881C70.7278 31.4466 71.0168 30.8489 71.4602 30.373C71.9035 29.8971 72.4807 29.5649 73.1165 29.4197C73.7524 29.2746 74.4175 29.3231 75.0252 29.5591C75.6329 29.795 76.1551 30.2074 76.5238 30.7426C76.8925 31.2779 77.0907 31.911 77.0924 32.5598C77.1127 32.9706 77.0501 33.3812 76.9082 33.7675C76.7664 34.1538 76.5482 34.5079 76.2665 34.809C75.9849 35.1101 75.6454 35.3521 75.2682 35.5207C74.891 35.6893 74.4837 35.781 74.0702 35.7906H74.0828ZM60.1176 28.8782V31.1323H65.5576C65.4723 32.1939 65.0285 33.1957 64.2984 33.9748C63.7541 34.5261 63.0998 34.958 62.3776 35.2427C61.6554 35.5273 60.8813 35.6585 60.105 35.6278C58.5019 35.6278 56.9645 34.9945 55.831 33.8673C54.6974 32.74 54.0606 31.2112 54.0606 29.6171C54.0606 28.0229 54.6974 26.4941 55.831 25.3668C56.9645 24.2396 58.5019 23.6063 60.105 23.6063C61.6385 23.5815 63.1194 24.1624 64.2228 25.2217L65.8221 23.6314C65.0772 22.8813 64.1885 22.2876 63.2086 21.8854C62.2287 21.4831 61.1777 21.2806 60.1176 21.2897C58.9981 21.2464 57.8814 21.4282 56.8343 21.8244C55.7871 22.2205 54.8312 22.8228 54.0238 23.5951C53.2163 24.3674 52.5739 25.2938 52.1352 26.3189C51.6964 27.344 51.4702 28.4466 51.4702 29.5607C51.4702 30.6748 51.6964 31.7774 52.1352 32.8025C52.5739 33.8276 53.2163 34.754 54.0238 35.5263C54.8312 36.2986 55.7871 36.9009 56.8343 37.297C57.8814 37.6932 58.9981 37.875 60.1176 37.8317C61.1955 37.8801 62.2713 37.6984 63.2726 37.2988C64.274 36.8992 65.1776 36.291 65.9228 35.5151C67.2421 34.0737 67.9465 32.1788 67.8872 30.2306C67.8913 29.756 67.8491 29.2821 67.7613 28.8156L60.1176 28.8782ZM117.175 30.6314C116.846 29.6706 116.232 28.8316 115.414 28.2256C114.595 27.6196 113.611 27.2752 112.591 27.2378C111.902 27.2365 111.22 27.3756 110.588 27.6467C109.955 27.9178 109.385 28.315 108.913 28.8138C108.441 29.3126 108.077 29.9024 107.843 30.5467C107.609 31.191 107.511 31.8762 107.554 32.5598C107.539 33.2597 107.665 33.9555 107.926 34.6056C108.188 35.2557 108.578 35.8468 109.074 36.3435C109.57 36.8403 110.162 37.2325 110.813 37.4968C111.465 37.7611 112.164 37.8921 112.868 37.8818C113.749 37.8865 114.617 37.6739 115.395 37.2631C116.173 36.8522 116.836 36.2559 117.326 35.5276L115.5 34.2754C115.227 34.7271 114.842 35.1008 114.38 35.3598C113.919 35.6189 113.398 35.7543 112.868 35.753C112.323 35.7737 111.783 35.6307 111.321 35.3426C110.858 35.0545 110.493 34.6346 110.274 34.1376L117.439 31.1949L117.175 30.6314ZM109.871 32.4095C109.845 32.0222 109.898 31.6337 110.025 31.2668C110.153 30.8999 110.352 30.5619 110.613 30.2727C110.873 29.9835 111.189 29.7489 111.541 29.5825C111.894 29.4162 112.277 29.3215 112.667 29.304C113.073 29.2774 113.478 29.37 113.832 29.5704C114.185 29.7707 114.472 30.07 114.656 30.431L109.871 32.4095ZM104.053 37.5687H106.408V21.9158H104.053V37.5687ZM100.2 28.4274H100.112C99.7568 28.0329 99.322 27.7173 98.8359 27.5015C98.3498 27.2857 97.8233 27.1745 97.291 27.1752C95.9148 27.2416 94.6171 27.8319 93.6668 28.8239C92.7164 29.8158 92.1863 31.1334 92.1863 32.5035C92.1863 33.8735 92.7164 35.1911 93.6668 36.183C94.6171 37.175 95.9148 37.7653 97.291 37.8317C97.8246 37.8406 98.3537 37.7331 98.841 37.5168C99.3284 37.3004 99.7621 36.9805 100.112 36.5795H100.187V37.3433C100.187 39.3845 99.0917 40.4739 97.3287 40.4739C96.7416 40.4602 96.1718 40.2731 95.6919 39.9364C95.212 39.5997 94.8437 39.1286 94.6339 38.583L92.5813 39.4346C92.9677 40.3692 93.626 41.1677 94.4719 41.7277C95.3178 42.2877 96.3126 42.5837 97.3287 42.5777C100.087 42.5777 102.366 40.9623 102.366 37.0303V27.5509H100.2V28.4274ZM97.505 35.7906C96.6927 35.7194 95.9367 35.3482 95.386 34.7502C94.8353 34.1522 94.5299 33.3707 94.5299 32.5598C94.5299 31.7489 94.8353 30.9675 95.386 30.3694C95.9367 29.7714 96.6927 29.4002 97.505 29.329C97.9078 29.3496 98.3023 29.4501 98.6654 29.6246C99.0285 29.7991 99.3528 30.0441 99.6191 30.3452C99.8855 30.6463 100.089 30.9973 100.216 31.3777C100.344 31.758 100.394 32.1599 100.364 32.5598C100.398 32.9614 100.35 33.3657 100.223 33.7484C100.095 34.131 99.8915 34.484 99.6231 34.786C99.3547 35.088 99.0275 35.3327 98.6613 35.5054C98.2951 35.6781 97.8974 35.7751 97.4924 35.7906H97.505ZM128.206 21.9158H122.577V37.5687H124.932V31.6331H128.218C128.89 31.6811 129.563 31.591 130.198 31.3686C130.833 31.1461 131.414 30.7961 131.907 30.3402C132.399 29.8844 132.792 29.3325 133.061 28.719C133.329 28.1055 133.468 27.4436 133.468 26.7745C133.468 26.1054 133.329 25.4435 133.061 24.83C132.792 24.2165 132.399 23.6646 131.907 23.2088C131.414 22.7529 130.833 22.4028 130.198 22.1804C129.563 21.9579 128.89 21.8679 128.218 21.9158H128.206ZM128.206 29.4292H124.919V24.0947H128.256C128.973 24.0947 129.66 24.3777 130.166 24.8814C130.673 25.3852 130.957 26.0684 130.957 26.7807C130.957 27.4931 130.673 28.1763 130.166 28.6801C129.66 29.1838 128.973 29.4668 128.256 29.4668L128.206 29.4292ZM142.725 27.1752C141.868 27.1242 141.014 27.3235 140.269 27.7484C139.524 28.1733 138.92 28.8054 138.532 29.567L140.622 30.431C140.828 30.0533 141.14 29.7433 141.52 29.5387C141.9 29.3342 142.332 29.2439 142.763 29.279C143.062 29.2442 143.365 29.2691 143.654 29.352C143.943 29.4349 144.213 29.5743 144.447 29.7619C144.682 29.9496 144.876 30.1818 145.019 30.4451C145.163 30.7083 145.252 30.9972 145.281 31.295V31.4578C144.525 31.0596 143.682 30.8532 142.826 30.8568C140.572 30.8568 138.292 32.109 138.292 34.3755C138.315 34.8588 138.434 35.3328 138.644 35.7693C138.853 36.2059 139.149 36.5963 139.513 36.9173C139.877 37.2384 140.302 37.4836 140.763 37.6385C141.224 37.7934 141.711 37.8548 142.196 37.8192C142.789 37.8615 143.383 37.7444 143.914 37.4799C144.446 37.2155 144.897 36.8137 145.218 36.3165H145.294V37.5687H147.561V31.5455C147.561 28.8031 145.47 27.2128 142.788 27.2128L142.725 27.1752ZM142.435 35.753C141.667 35.753 140.597 35.3648 140.597 34.4256C140.597 33.1734 141.932 32.7602 143.115 32.7602C143.863 32.7418 144.603 32.9234 145.256 33.2861C145.177 33.9641 144.855 34.5909 144.348 35.0511C143.841 35.5113 143.184 35.7739 142.498 35.7906L142.435 35.753ZM155.821 27.5509L153.127 34.338H153.051L150.255 27.5509H147.737L151.93 37.0428L149.538 42.3147H151.993L158.441 27.5509H155.821ZM134.653 37.5687H137.008V21.9158H134.653V37.5687Z" fill="#1C1C23"/> <path d="M53.0285 17.8707H52.0966V15.3663H52.89C53.2517 14.9851 53.5249 14.5296 53.6903 14.0319C53.8556 13.5343 53.9091 13.0066 53.847 12.4861V8.76699H58.884V15.3537H59.7277V17.8582H58.7959V16.2804H53.0285V17.8707ZM54.7789 12.5237C54.8376 13.5338 54.5874 14.5379 54.0611 15.4038H57.8389V9.69364H54.7789V12.5237ZM67.2581 15.3036C66.5219 16.0316 65.5259 16.4403 64.4877 16.4403C63.4495 16.4403 62.4535 16.0316 61.7174 15.3036C61.0018 14.5505 60.6032 13.5536 60.6032 12.5174C60.6032 11.4813 61.0018 10.4844 61.7174 9.73121C62.0802 9.36774 62.5118 9.07927 62.9873 8.88241C63.4628 8.68556 63.9727 8.58421 64.4877 8.58421C65.0028 8.58421 65.5127 8.68556 65.9882 8.88241C66.4637 9.07927 66.8953 9.36774 67.2581 9.73121C67.9765 10.483 68.3771 11.4804 68.3771 12.5174C68.3771 13.5545 67.9765 14.5519 67.2581 15.3036ZM62.4352 14.6775C62.9803 15.2174 63.7184 15.5205 64.4877 15.5205C65.2571 15.5205 65.9952 15.2174 66.5403 14.6775C67.0783 14.0878 67.3764 13.32 67.3764 12.5237C67.3764 11.7274 67.0783 10.9596 66.5403 10.3699C65.9952 9.82999 65.2571 9.52688 64.4877 9.52688C63.7184 9.52688 62.9803 9.82999 62.4352 10.3699C61.8971 10.9596 61.5991 11.7274 61.5991 12.5237C61.5991 13.32 61.8971 14.0878 62.4352 14.6775ZM73.2648 16.4432C72.7449 16.4535 72.2284 16.359 71.7462 16.1655C71.264 15.972 70.8262 15.6835 70.4591 15.3173C70.0921 14.9511 69.8033 14.5148 69.6103 14.0347C69.4172 13.5546 69.3239 13.0406 69.3359 12.5237C69.3239 12.0068 69.4172 11.4928 69.6103 11.0127C69.8033 10.5326 70.0921 10.0963 70.4591 9.7301C70.8262 9.3639 71.264 9.07537 71.7462 8.88187C72.2284 8.68838 72.7449 8.59393 73.2648 8.6042C73.7917 8.59123 74.3147 8.69716 74.7945 8.91405C75.2744 9.13094 75.6985 9.45313 76.0351 9.85644L75.3551 10.5076C75.1064 10.1936 74.7857 9.94336 74.4199 9.77779C74.054 9.61222 73.6537 9.53614 73.2522 9.5559C72.8657 9.54591 72.4811 9.614 72.1218 9.75606C71.7625 9.89812 71.4359 10.1112 71.1618 10.3824C70.6158 10.9757 70.313 11.7508 70.313 12.555C70.313 13.3592 70.6158 14.1343 71.1618 14.7276C71.4359 14.9988 71.7625 15.2119 72.1218 15.3539C72.4811 15.496 72.8657 15.5641 73.2522 15.5541C73.6954 15.5502 74.1322 15.4481 74.5308 15.2553C74.9294 15.0625 75.2799 14.7839 75.5566 14.4396L76.2366 15.1158C75.8939 15.5292 75.464 15.8626 74.9774 16.0926C74.4398 16.3346 73.8548 16.4544 73.2648 16.4432ZM80.1907 16.2804H79.2211V9.69364H77.1055V8.76699H82.2937V9.69364H80.1907V16.2804ZM88.9677 8.76699L86.1092 15.1033C85.9948 15.4781 85.7662 15.8083 85.4549 16.0484C85.1436 16.2884 84.765 16.4263 84.3714 16.4432C84.1112 16.4399 83.8542 16.3845 83.6159 16.2804L83.8677 15.3913C84.0208 15.4799 84.1944 15.5274 84.3714 15.529C84.5565 15.5429 84.7414 15.4991 84.9003 15.4038C85.0521 15.2761 85.169 15.1125 85.2403 14.928L85.5174 14.3269L82.9989 8.77952H84.1448L86.0085 13.0872L87.8218 8.76699H88.9677ZM90.0633 16.2804V8.76699H95.5285V16.2804H94.5589V9.69364H91.0329V16.2804H90.0633ZM97.2537 16.2804V8.76699H98.2233V11.9852H102.001V8.76699H102.971V16.2804H102.001V12.8868H98.2233V16.2804H97.2537ZM110.891 15.3036C110.155 16.0316 109.159 16.4403 108.121 16.4403C107.083 16.4403 106.087 16.0316 105.351 15.3036C104.635 14.5505 104.237 13.5536 104.237 12.5174C104.237 11.4813 104.635 10.4844 105.351 9.73121C105.714 9.36774 106.145 9.07927 106.621 8.88241C107.096 8.68556 107.606 8.58421 108.121 8.58421C108.636 8.58421 109.146 8.68556 109.622 8.88241C110.097 9.07927 110.529 9.36774 110.891 9.73121C111.61 10.483 112.01 11.4804 112.01 12.5174C112.01 13.5545 111.61 14.5519 110.891 15.3036ZM106.068 14.6775C106.614 15.2174 107.352 15.5205 108.121 15.5205C108.89 15.5205 109.629 15.2174 110.174 14.6775C110.712 14.0878 111.01 13.32 111.01 12.5237C111.01 11.7274 110.712 10.9596 110.174 10.3699C109.629 9.82999 108.89 9.52688 108.121 9.52688C107.352 9.52688 106.614 9.82999 106.068 10.3699C105.53 10.9596 105.232 11.7274 105.232 12.5237C105.232 13.32 105.53 14.0878 106.068 14.6775ZM115.966 16.2804V8.76699H118.699C119.266 8.75634 119.816 8.96251 120.235 9.34302C120.446 9.52461 120.613 9.74997 120.726 10.0031C120.84 10.2563 120.895 10.5311 120.89 10.8081C120.896 11.1419 120.799 11.4696 120.613 11.7473C120.428 12.0171 120.171 12.2297 119.87 12.3609C120.235 12.4811 120.556 12.7081 120.789 13.0121C121.031 13.3189 121.16 13.699 121.154 14.089C121.161 14.3777 121.103 14.6642 120.986 14.9282C120.868 15.1923 120.694 15.4273 120.474 15.6167C120.036 16.0189 119.459 16.2385 118.863 16.2303L115.966 16.2804ZM116.936 11.9852H118.699C118.864 11.9921 119.028 11.9631 119.18 11.9004C119.332 11.8377 119.469 11.7427 119.58 11.6221C119.692 11.5216 119.782 11.3997 119.845 11.2639C119.908 11.128 119.943 10.9809 119.948 10.8313C119.952 10.6817 119.927 10.5327 119.872 10.3932C119.818 10.2537 119.736 10.1265 119.631 10.0192C119.525 9.90086 119.395 9.80696 119.25 9.7442C119.104 9.68144 118.946 9.65136 118.787 9.65608H116.986L116.936 11.9852ZM116.936 15.3537H118.888C119.058 15.3594 119.228 15.3276 119.385 15.2605C119.541 15.1934 119.681 15.0927 119.794 14.9655C120.016 14.7365 120.143 14.4321 120.147 14.114C120.147 13.7819 120.014 13.4634 119.778 13.2286C119.542 12.9937 119.222 12.8618 118.888 12.8618H116.974L116.936 15.3537Z" fill="#1C1C23"/> <path fill-rule="evenodd" clip-rule="evenodd" d="M64.4877 8.70943C63.9893 8.70943 63.4958 8.80751 63.0357 8.99802C62.576 9.18832 62.1588 9.46711 61.8078 9.81833C61.1151 10.5481 60.7291 11.5138 60.7291 12.5174C60.7291 13.5209 61.1149 14.4865 61.8076 15.2162C62.52 15.92 63.4835 16.315 64.4877 16.315C65.4921 16.315 66.4556 15.92 67.168 15.2161C67.8634 14.4878 68.2511 13.5218 68.2511 12.5174C68.2511 11.5129 67.8633 10.5468 67.1678 9.81846C66.8168 9.46718 66.3995 9.18835 65.9398 8.99802C65.4797 8.80751 64.9862 8.70943 64.4877 8.70943ZM62.9389 8.76681C63.4297 8.5636 63.9561 8.45898 64.4877 8.45898C65.0194 8.45898 65.5458 8.5636 66.0366 8.76681C66.5274 8.97002 66.9729 9.2678 67.3475 9.64299L67.3494 9.64493C68.09 10.42 68.503 11.4483 68.503 12.5174C68.503 13.5866 68.09 14.6149 67.3494 15.3899L67.3469 15.3925C66.5872 16.1438 65.5592 16.5655 64.4877 16.5655C63.4163 16.5655 62.3883 16.1438 61.6286 15.3924L61.6258 15.3897C60.8882 14.6132 60.4773 13.5856 60.4773 12.5174C60.4773 11.4493 60.8882 10.4217 61.6258 9.64522L61.628 9.64296C62.0025 9.26777 62.4481 8.97002 62.9389 8.76681ZM108.121 8.70943C107.623 8.70943 107.129 8.80751 106.669 8.99802C106.209 9.18831 105.792 9.46708 105.441 9.81827C104.748 10.5481 104.362 11.5138 104.362 12.5174C104.362 13.5209 104.748 14.4865 105.441 15.2162C106.153 15.92 107.117 16.315 108.121 16.315C109.125 16.315 110.089 15.9199 110.801 15.216C111.497 14.4877 111.884 13.5217 111.884 12.5174C111.884 11.513 111.497 10.5469 110.801 9.8185C110.45 9.46719 110.033 9.18835 109.573 8.99802C109.113 8.80751 108.62 8.70943 108.121 8.70943ZM106.572 8.76681C107.063 8.5636 107.589 8.45898 108.121 8.45898C108.653 8.45898 109.179 8.5636 109.67 8.76681C110.161 8.97002 110.606 9.2678 110.981 9.64299L110.983 9.64493C111.723 10.42 112.136 11.4483 112.136 12.5174C112.136 13.5866 111.723 14.6149 110.983 15.3899L110.98 15.3925C110.221 16.1438 109.193 16.5655 108.121 16.5655C107.05 16.5655 106.022 16.1438 105.262 15.3924L105.259 15.3897C104.522 14.6132 104.111 13.5856 104.111 12.5174C104.111 11.4493 104.522 10.4217 105.259 9.64522L105.261 9.64296C105.636 9.26777 106.081 8.97002 106.572 8.76681ZM74.7424 9.02805C74.2799 8.81899 73.7758 8.71688 73.2679 8.72939L73.2623 8.72953C72.7594 8.71959 72.2597 8.81083 71.7933 8.998C71.3269 9.18517 70.9034 9.46428 70.5483 9.81851C70.1932 10.1727 69.9139 10.5948 69.7272 11.0592C69.5405 11.5236 69.4502 12.0208 69.4618 12.5208L69.4619 12.5266C69.4503 13.0266 69.5405 13.5238 69.7272 13.9882C69.9139 14.4526 70.1932 14.8746 70.5483 15.2289C70.9034 15.5831 71.3269 15.8622 71.7933 16.0494C72.2597 16.2366 72.7594 16.3279 73.2623 16.318L73.2648 16.4432L73.2672 16.318C73.8381 16.3289 74.4042 16.2131 74.9243 15.979C75.3595 15.7732 75.7476 15.4817 76.0654 15.1226L75.5649 14.6249C75.2919 14.9346 74.9592 15.1874 74.5859 15.3679C74.1708 15.5687 73.716 15.675 73.2544 15.6793C72.8512 15.6896 72.4501 15.6185 72.0753 15.4703C71.7002 15.322 71.3592 15.0995 71.073 14.8164L71.0688 14.8122C70.5016 14.1959 70.1871 13.3905 70.1871 12.555C70.1871 11.7195 70.5017 10.9142 71.0689 10.2978L71.0729 10.2935C71.3591 10.0104 71.7002 9.78801 72.0753 9.6397C72.4489 9.49196 72.8488 9.42085 73.2507 9.4306C73.6707 9.41068 74.0894 9.49062 74.4721 9.66381C74.814 9.81857 75.1184 10.0438 75.3654 10.324L75.8621 9.84832C75.5507 9.50061 75.1694 9.22106 74.7424 9.02805ZM73.2648 16.5684C72.7288 16.5787 72.1962 16.4811 71.6991 16.2816C71.2011 16.0818 70.749 15.7838 70.3699 15.4057C69.9909 15.0275 69.6927 14.577 69.4933 14.0812C69.2944 13.5863 69.198 13.0565 69.2099 12.5237C69.198 11.9909 69.2944 11.4611 69.4933 10.9662C69.6927 10.4704 69.9909 10.0199 70.3699 9.6417C70.749 9.26353 71.2011 8.96557 71.6991 8.76575C72.1961 8.56628 72.7286 8.46873 73.2645 8.47895C73.8095 8.46595 74.3503 8.57572 74.8466 8.80005C75.3438 9.02477 75.7833 9.3586 76.132 9.77646L76.2067 9.86596L75.3423 10.6937L75.2562 10.5851C75.0199 10.2868 74.7153 10.0491 74.3677 9.89176C74.0202 9.73448 73.6398 9.6622 73.2584 9.68097L73.2489 9.68144C72.8794 9.67189 72.5118 9.73662 72.1683 9.87242C71.8258 10.0079 71.5143 10.2108 71.2527 10.4691C70.7292 11.039 70.439 11.783 70.439 12.555C70.439 13.327 70.7292 14.071 71.2527 14.6409C71.5143 14.8992 71.8258 15.1021 72.1683 15.2376C72.5118 15.3734 72.8794 15.4385 73.2489 15.4289L73.2511 15.4289C73.6756 15.4251 74.094 15.3273 74.4757 15.1427C74.8575 14.9581 75.1932 14.6912 75.4583 14.3614L75.5462 14.2521L76.4066 15.1077L76.3338 15.1955C75.9793 15.623 75.5347 15.9679 75.0314 16.2057L75.0293 16.2066C74.4755 16.4561 73.8727 16.5797 73.2648 16.5684ZM120.15 9.43549C119.755 9.0766 119.236 8.88214 118.701 8.89219L118.699 8.89222H116.092V16.153L118.86 16.1051L118.864 16.1051C119.429 16.1129 119.974 15.9051 120.389 15.5247L120.392 15.5221C120.597 15.3448 120.761 15.1248 120.871 14.8776C120.981 14.6303 121.035 14.362 121.029 14.0918L121.029 14.0871C121.034 13.7258 120.915 13.3736 120.69 13.0894L120.689 13.0881C120.471 12.8041 120.172 12.5921 119.83 12.4798L119.519 12.3773L119.819 12.2462C120.098 12.1246 120.337 11.9275 120.508 11.6774C120.68 11.4209 120.77 11.1185 120.764 10.8103V10.8057C120.769 10.547 120.717 10.2904 120.611 10.054C120.506 9.81759 120.349 9.60716 120.153 9.43759L120.15 9.43549ZM120.319 9.24953C119.877 8.84832 119.296 8.63083 118.698 8.64177H115.84V16.4078L118.861 16.3555L118.863 16.3555C119.49 16.3637 120.097 16.1327 120.558 15.71C120.791 15.5088 120.976 15.2592 121.101 14.9789C121.226 14.6988 121.287 14.3948 121.28 14.0886L121.28 14.0909L121.154 14.089L121.28 14.0862L121.28 14.0886C121.286 13.671 121.148 13.264 120.889 12.9354C120.696 12.685 120.448 12.4837 120.166 12.3461C120.383 12.2101 120.571 12.0305 120.717 11.8178L120.718 11.8168C120.918 11.5185 121.022 11.1667 121.016 10.8082L121.016 10.8106L120.89 10.8081L121.016 10.8059L121.016 10.8082C121.021 10.5137 120.962 10.2215 120.842 9.95229C120.721 9.68285 120.543 9.44296 120.319 9.24953ZM53.7211 8.64177H59.01V15.2285H59.8537V17.9834H58.67V16.4056H53.1544V17.9959H51.9707V15.241H52.8351C53.166 14.8813 53.4167 14.4559 53.5707 13.9926C53.7303 13.5124 53.7819 13.0031 53.722 12.5009L53.7211 12.4935V8.64177ZM53.9729 8.89222V12.4788C54.0358 13.015 53.9802 13.5585 53.8098 14.0712C53.6387 14.5863 53.3559 15.0577 52.9815 15.4522L52.9443 15.4915H52.2226V17.7455H52.9026V16.1552H58.9218V17.733H59.6018V15.479H58.7581V8.89222H53.9729ZM76.9796 8.64177H82.4196V9.81887H80.3166V16.4056H79.0952V9.81887H76.9796V8.64177ZM77.2315 8.89222V9.56842H79.347V16.1552H80.0648V9.56842H82.1677V8.89222H77.2315ZM87.7379 8.64177H89.1623L86.2273 15.1474C86.1046 15.5438 85.8618 15.8931 85.532 16.1473C85.2001 16.4032 84.7965 16.5503 84.3769 16.5683L84.3698 16.5686C84.0927 16.5651 83.819 16.5059 83.5652 16.395L83.465 16.3512L83.7906 15.2017L83.9311 15.2831C84.0653 15.3608 84.2174 15.4024 84.3726 15.4038L84.3809 15.4039C84.5366 15.4156 84.6921 15.38 84.8267 15.3017C84.9585 15.1885 85.0603 15.0447 85.1228 14.883L85.1256 14.8757L85.379 14.3265L82.8038 8.65429H84.2277L86.0067 12.7663L87.7379 8.64177ZM87.9057 8.89222L86.0102 13.4081L84.0619 8.90474H83.1939L85.6557 14.3273L85.3564 14.9767C85.2773 15.1793 85.1485 15.359 84.9817 15.4994L84.974 15.5059L84.9654 15.5111C84.7852 15.6191 84.5759 15.6691 84.3661 15.6542C84.2222 15.6524 84.0804 15.6236 83.948 15.5698L83.7677 16.2064C83.9603 16.2771 84.1638 16.3149 84.3695 16.3179C84.7358 16.3015 85.0879 16.1728 85.3777 15.9494C85.6684 15.7253 85.8819 15.4169 85.9887 15.0669L85.9911 15.0593L88.7732 8.89222H87.9057ZM89.9374 8.64177H95.6544V16.4056H94.4329V9.81887H91.1589V16.4056H89.9374V8.64177ZM90.1892 8.89222V16.1552H90.907V9.56842H94.6848V16.1552H95.4026V8.89222H90.1892ZM97.1278 8.64177H98.3492V11.86H101.875V8.64177H103.097V16.4056H101.875V13.0121H98.3492V16.4056H97.1278V8.64177ZM97.3796 8.89222V16.1552H98.0974V12.7616H102.127V16.1552H102.845V8.89222H102.127V12.1105H98.0974V8.89222H97.3796ZM62.3463 10.2811C62.9151 9.71788 63.6851 9.40166 64.4877 9.40166C65.2904 9.40166 66.0604 9.71788 66.6292 10.2811L66.6337 10.2856C67.1927 10.8984 67.5023 11.6963 67.5023 12.5237C67.5023 13.3511 67.1926 14.1488 66.6336 14.7617L66.6293 14.7664C66.0605 15.3296 65.2904 15.6457 64.4877 15.6457C63.6851 15.6457 62.9151 15.3295 62.3463 14.7663L62.4352 14.6775L62.3419 14.7617C61.7829 14.1488 61.4732 13.3511 61.4732 12.5237C61.4732 11.6963 61.7829 10.8985 62.3419 10.2857L62.3463 10.2811ZM62.5263 14.591C63.0476 15.1061 63.7527 15.3953 64.4877 15.3953C65.2228 15.3953 65.9279 15.1061 66.4492 14.591C66.9648 14.0246 67.2504 13.2878 67.2504 12.5237C67.2504 11.7596 66.9648 11.0228 66.4492 10.4563C65.9279 9.94125 65.2228 9.6521 64.4877 9.6521C63.7527 9.6521 63.0476 9.94125 62.5263 10.4563C62.0106 11.0228 61.7251 11.7596 61.7251 12.5237C61.7251 13.2878 62.0106 14.0246 62.5263 14.591ZM105.98 10.2811C106.548 9.71788 107.318 9.40166 108.121 9.40166C108.924 9.40166 109.694 9.71788 110.263 10.2811L110.267 10.2856C110.826 10.8984 111.136 11.6963 111.136 12.5237C111.136 13.3511 110.826 14.1488 110.267 14.7617L110.263 14.7664C109.694 15.3296 108.924 15.6457 108.121 15.6457C107.318 15.6457 106.548 15.3295 105.98 14.7663L106.068 14.6775L105.975 14.7617C105.416 14.1488 105.107 13.3511 105.107 12.5237C105.107 11.6963 105.416 10.8985 105.975 10.2857L105.98 10.2811ZM106.16 14.5911C106.681 15.1061 107.386 15.3953 108.121 15.3953C108.856 15.3953 109.561 15.1061 110.083 14.5911C110.598 14.0246 110.884 13.2878 110.884 12.5237C110.884 11.7596 110.598 11.0228 110.083 10.4563C109.561 9.94124 108.856 9.6521 108.121 9.6521C107.386 9.6521 106.681 9.94124 106.16 10.4563C105.644 11.0228 105.358 11.7596 105.358 12.5237C105.358 13.2878 105.644 14.0246 106.16 14.5911ZM118.785 9.53085C118.962 9.52589 119.137 9.55948 119.3 9.62928C119.461 9.69895 119.606 9.803 119.723 9.93411C119.839 10.053 119.929 10.1936 119.99 10.3479C120.05 10.5031 120.079 10.6688 120.074 10.8352C120.068 11.0016 120.029 11.1652 119.959 11.3164C119.89 11.4658 119.791 11.5999 119.669 11.711C119.546 11.8431 119.395 11.9471 119.228 12.0161C119.06 12.0854 118.878 12.1176 118.696 12.1105H116.807L116.863 9.53085H118.785ZM119.2 9.85912C119.071 9.80366 118.931 9.77707 118.791 9.78124L118.787 9.7813H117.11L117.065 11.86H118.704C118.85 11.8661 118.996 11.8405 119.132 11.7847C119.267 11.729 119.389 11.6445 119.488 11.5373L119.492 11.5331L119.496 11.5293C119.595 11.4401 119.675 11.3319 119.731 11.2113C119.787 11.0907 119.818 10.9602 119.822 10.8274C119.826 10.6946 119.803 10.5623 119.755 10.4385C119.707 10.3147 119.634 10.2018 119.54 10.1066L119.536 10.1023C119.443 9.99765 119.328 9.91458 119.2 9.85912ZM54.6529 9.56842H57.9648V15.529H53.8378L53.9533 15.3391C54.4664 14.4948 54.7104 13.5158 54.6531 12.5309L54.6527 12.5237L54.6529 9.56842ZM54.9048 9.81887V12.5201C54.96 13.4811 54.7423 14.4368 54.2788 15.2786H57.7129V9.81887H54.9048ZM116.85 12.7366H118.888C119.255 12.7366 119.607 12.8817 119.867 13.14C120.127 13.3983 120.273 13.7487 120.273 14.114L120.273 14.1158C120.268 14.4648 120.13 14.7989 119.887 15.0506C119.762 15.1905 119.607 15.3015 119.435 15.3755C119.261 15.4496 119.074 15.4849 118.886 15.479H116.808L116.85 12.7366ZM117.098 12.987L117.064 15.2285H118.892C119.044 15.2336 119.195 15.2053 119.335 15.1455C119.475 15.0856 119.599 14.9959 119.7 14.8826L119.704 14.8785C119.903 14.6727 120.017 14.3991 120.021 14.1131C120.021 13.8145 119.901 13.5283 119.689 13.3171C119.477 13.1058 119.188 12.987 118.888 12.987H117.098Z" fill="#1C1C23"/> <path d="M13.2795 40.9493L28.7062 25.0382L13.2924 9.15552C12.8807 9.40279 12.626 9.97533 12.626 10.7248V39.3953C12.6315 40.1448 12.8771 40.6754 13.2795 40.9493Z" fill="#1C1C23"/> <path d="M29.2583 24.5979L33.8534 19.8578L15.1406 9.27448C14.8255 9.08564 14.4676 8.9859 14.103 8.98535L29.2565 24.596L29.2583 24.5979Z" fill="#1C1C23"/> <path d="M29.259 25.4795L14.0576 41.1586C14.4392 41.1652 14.815 41.0625 15.1432 40.8619L33.8929 30.25L29.259 25.4795Z" fill="#1C1C23"/> <path d="M40.6324 23.6974L34.4052 20.1689L29.6846 25.0384L34.4403 29.9382L40.6305 26.4193C41.9469 25.6718 41.9468 24.4411 40.6324 23.6974Z" fill="#1C1C23"/> </svg>